<mxfile host="app.diagrams.net" modified="2023-03-04T23:30:05.055Z" agent="5.0 (Macintosh; Intel Mac OS X 10_15_7) AppleWebKit/605.1.15 (KHTML, like Gecko) Version/16.3 Safari/605.1.15" etag="erfYKikjv7rbBIvGYeuV" version="21.0.2" type="github">
  <diagram name="Page-1" id="blRbA__5vPV7jWURciNI">
    <mxGraphModel dx="2131" dy="842" grid="1" gridSize="10" guides="1" tooltips="1" connect="1" arrows="1" fold="1" page="1" pageScale="1" pageWidth="827" pageHeight="1169" math="0" shadow="0">
      <root>
        <mxCell id="0" />
        <mxCell id="1" parent="0" />
        <mxCell id="SGqpdtDcgsjXCCNpPrpQ-2" value="Gateway" style="ellipse;whiteSpace=wrap;html=1;aspect=fixed;fillColor=#dae8fc;strokeColor=#6c8ebf;" vertex="1" parent="1">
          <mxGeometry x="330" y="140" width="80" height="80" as="geometry" />
        </mxCell>
        <mxCell id="SGqpdtDcgsjXCCNpPrpQ-3" value="Actor" style="shape=umlActor;verticalLabelPosition=bottom;verticalAlign=top;html=1;outlineConnect=0;" vertex="1" parent="1">
          <mxGeometry x="90" y="160" width="30" height="60" as="geometry" />
        </mxCell>
        <mxCell id="SGqpdtDcgsjXCCNpPrpQ-4" value="" style="endArrow=classic;html=1;rounded=0;entryX=0;entryY=0.5;entryDx=0;entryDy=0;" edge="1" parent="1" target="SGqpdtDcgsjXCCNpPrpQ-2">
          <mxGeometry width="50" height="50" relative="1" as="geometry">
            <mxPoint x="130" y="200" as="sourcePoint" />
            <mxPoint x="170" y="190" as="targetPoint" />
          </mxGeometry>
        </mxCell>
        <mxCell id="SGqpdtDcgsjXCCNpPrpQ-63" style="edgeStyle=orthogonalEdgeStyle;rounded=0;orthogonalLoop=1;jettySize=auto;html=1;" edge="1" parent="1" source="SGqpdtDcgsjXCCNpPrpQ-6" target="SGqpdtDcgsjXCCNpPrpQ-61">
          <mxGeometry relative="1" as="geometry" />
        </mxCell>
        <mxCell id="SGqpdtDcgsjXCCNpPrpQ-6" value="Customer service1" style="whiteSpace=wrap;html=1;aspect=fixed;fillColor=#f8cecc;strokeColor=#b85450;" vertex="1" parent="1">
          <mxGeometry x="180" y="360" width="80" height="80" as="geometry" />
        </mxCell>
        <mxCell id="SGqpdtDcgsjXCCNpPrpQ-55" style="edgeStyle=orthogonalEdgeStyle;rounded=0;orthogonalLoop=1;jettySize=auto;html=1;" edge="1" parent="1" source="SGqpdtDcgsjXCCNpPrpQ-7">
          <mxGeometry relative="1" as="geometry">
            <mxPoint x="550" y="400" as="targetPoint" />
          </mxGeometry>
        </mxCell>
        <mxCell id="SGqpdtDcgsjXCCNpPrpQ-7" value="Customer service2" style="whiteSpace=wrap;html=1;aspect=fixed;fillColor=#f8cecc;strokeColor=#b85450;" vertex="1" parent="1">
          <mxGeometry x="360" y="360" width="80" height="80" as="geometry" />
        </mxCell>
        <mxCell id="SGqpdtDcgsjXCCNpPrpQ-10" value="" style="edgeStyle=orthogonalEdgeStyle;rounded=0;orthogonalLoop=1;jettySize=auto;html=1;" edge="1" parent="1" source="SGqpdtDcgsjXCCNpPrpQ-8" target="SGqpdtDcgsjXCCNpPrpQ-6">
          <mxGeometry relative="1" as="geometry" />
        </mxCell>
        <mxCell id="SGqpdtDcgsjXCCNpPrpQ-8" value="Postgres" style="shape=cylinder3;whiteSpace=wrap;html=1;boundedLbl=1;backgroundOutline=1;size=15;fillColor=#e1d5e7;strokeColor=#9673a6;" vertex="1" parent="1">
          <mxGeometry x="190" y="480" width="60" height="80" as="geometry" />
        </mxCell>
        <mxCell id="SGqpdtDcgsjXCCNpPrpQ-11" value="" style="edgeStyle=orthogonalEdgeStyle;rounded=0;orthogonalLoop=1;jettySize=auto;html=1;" edge="1" parent="1" source="SGqpdtDcgsjXCCNpPrpQ-9" target="SGqpdtDcgsjXCCNpPrpQ-7">
          <mxGeometry relative="1" as="geometry" />
        </mxCell>
        <mxCell id="SGqpdtDcgsjXCCNpPrpQ-9" value="Postgres" style="shape=cylinder3;whiteSpace=wrap;html=1;boundedLbl=1;backgroundOutline=1;size=15;fillColor=#e1d5e7;strokeColor=#9673a6;" vertex="1" parent="1">
          <mxGeometry x="370" y="480" width="60" height="80" as="geometry" />
        </mxCell>
        <mxCell id="SGqpdtDcgsjXCCNpPrpQ-12" value="Transaction" style="whiteSpace=wrap;html=1;aspect=fixed;fillColor=#d5e8d4;strokeColor=#82b366;" vertex="1" parent="1">
          <mxGeometry x="560" y="350" width="80" height="80" as="geometry" />
        </mxCell>
        <mxCell id="SGqpdtDcgsjXCCNpPrpQ-14" value="" style="edgeStyle=orthogonalEdgeStyle;rounded=0;orthogonalLoop=1;jettySize=auto;html=1;" edge="1" parent="1" source="SGqpdtDcgsjXCCNpPrpQ-13" target="SGqpdtDcgsjXCCNpPrpQ-12">
          <mxGeometry relative="1" as="geometry" />
        </mxCell>
        <mxCell id="SGqpdtDcgsjXCCNpPrpQ-13" value="Postgres" style="shape=cylinder3;whiteSpace=wrap;html=1;boundedLbl=1;backgroundOutline=1;size=15;fillColor=#e1d5e7;strokeColor=#9673a6;" vertex="1" parent="1">
          <mxGeometry x="570" y="480" width="60" height="80" as="geometry" />
        </mxCell>
        <mxCell id="SGqpdtDcgsjXCCNpPrpQ-20" value="" style="endArrow=classic;startArrow=classic;html=1;rounded=0;entryX=0.663;entryY=1.013;entryDx=0;entryDy=0;entryPerimeter=0;" edge="1" parent="1" target="SGqpdtDcgsjXCCNpPrpQ-2">
          <mxGeometry width="50" height="50" relative="1" as="geometry">
            <mxPoint x="420" y="350" as="sourcePoint" />
            <mxPoint x="390" y="230" as="targetPoint" />
          </mxGeometry>
        </mxCell>
        <mxCell id="SGqpdtDcgsjXCCNpPrpQ-21" value="" style="endArrow=classic;startArrow=classic;html=1;rounded=0;" edge="1" parent="1" target="SGqpdtDcgsjXCCNpPrpQ-2">
          <mxGeometry width="50" height="50" relative="1" as="geometry">
            <mxPoint x="250" y="350" as="sourcePoint" />
            <mxPoint x="350" y="270" as="targetPoint" />
          </mxGeometry>
        </mxCell>
        <mxCell id="SGqpdtDcgsjXCCNpPrpQ-22" value="Registry/discovery" style="rounded=0;whiteSpace=wrap;html=1;fillColor=#fff2cc;strokeColor=#d6b656;" vertex="1" parent="1">
          <mxGeometry x="530" y="130" width="120" height="60" as="geometry" />
        </mxCell>
        <mxCell id="SGqpdtDcgsjXCCNpPrpQ-23" value="" style="endArrow=classic;html=1;rounded=0;entryX=0.442;entryY=1.033;entryDx=0;entryDy=0;entryPerimeter=0;" edge="1" parent="1" target="SGqpdtDcgsjXCCNpPrpQ-22">
          <mxGeometry width="50" height="50" relative="1" as="geometry">
            <mxPoint x="440" y="360" as="sourcePoint" />
            <mxPoint x="490" y="310" as="targetPoint" />
          </mxGeometry>
        </mxCell>
        <mxCell id="SGqpdtDcgsjXCCNpPrpQ-27" value="" style="endArrow=classic;html=1;rounded=0;exitX=1.038;exitY=0.163;exitDx=0;exitDy=0;exitPerimeter=0;entryX=0;entryY=1;entryDx=0;entryDy=0;" edge="1" parent="1" source="SGqpdtDcgsjXCCNpPrpQ-6" target="SGqpdtDcgsjXCCNpPrpQ-22">
          <mxGeometry width="50" height="50" relative="1" as="geometry">
            <mxPoint x="390" y="460" as="sourcePoint" />
            <mxPoint x="300" y="320" as="targetPoint" />
          </mxGeometry>
        </mxCell>
        <mxCell id="SGqpdtDcgsjXCCNpPrpQ-30" value="" style="endArrow=classic;html=1;rounded=0;entryX=0;entryY=0.5;entryDx=0;entryDy=0;" edge="1" parent="1" target="SGqpdtDcgsjXCCNpPrpQ-22">
          <mxGeometry width="50" height="50" relative="1" as="geometry">
            <mxPoint x="410" y="185" as="sourcePoint" />
            <mxPoint x="460" y="135" as="targetPoint" />
          </mxGeometry>
        </mxCell>
        <mxCell id="SGqpdtDcgsjXCCNpPrpQ-31" value="Config server" style="whiteSpace=wrap;html=1;aspect=fixed;fillColor=#ffe6cc;strokeColor=#d79b00;" vertex="1" parent="1">
          <mxGeometry x="50" y="260" width="80" height="80" as="geometry" />
        </mxCell>
        <mxCell id="SGqpdtDcgsjXCCNpPrpQ-32" value="zuul | Cloud gateway" style="text;html=1;strokeColor=none;fillColor=none;align=center;verticalAlign=middle;whiteSpace=wrap;rounded=0;" vertex="1" parent="1">
          <mxGeometry x="330" y="70" width="80" height="40" as="geometry" />
        </mxCell>
        <mxCell id="SGqpdtDcgsjXCCNpPrpQ-33" value="Produit" style="rounded=0;whiteSpace=wrap;html=1;fillColor=#d80073;fontColor=#ffffff;strokeColor=#A50040;" vertex="1" parent="1">
          <mxGeometry x="680" y="360" width="120" height="60" as="geometry" />
        </mxCell>
        <mxCell id="SGqpdtDcgsjXCCNpPrpQ-35" value="Eureka &amp;nbsp;| consul discovery" style="text;html=1;strokeColor=none;fillColor=none;align=center;verticalAlign=middle;whiteSpace=wrap;rounded=0;" vertex="1" parent="1">
          <mxGeometry x="550" y="80" width="60" height="30" as="geometry" />
        </mxCell>
        <mxCell id="SGqpdtDcgsjXCCNpPrpQ-41" value="Consul config" style="text;html=1;strokeColor=none;fillColor=none;align=center;verticalAlign=middle;whiteSpace=wrap;rounded=0;" vertex="1" parent="1">
          <mxGeometry x="35" y="350" width="60" height="30" as="geometry" />
        </mxCell>
        <mxCell id="SGqpdtDcgsjXCCNpPrpQ-43" value="vault" style="rounded=0;whiteSpace=wrap;html=1;fillColor=#fff2cc;gradientColor=#ffd966;strokeColor=#d6b656;" vertex="1" parent="1">
          <mxGeometry x="670" y="50" width="120" height="60" as="geometry" />
        </mxCell>
        <mxCell id="SGqpdtDcgsjXCCNpPrpQ-45" value="Authentification" style="whiteSpace=wrap;html=1;aspect=fixed;fillColor=#f5f5f5;gradientColor=#b3b3b3;strokeColor=#666666;" vertex="1" parent="1">
          <mxGeometry x="150" y="40" width="80" height="80" as="geometry" />
        </mxCell>
        <mxCell id="SGqpdtDcgsjXCCNpPrpQ-48" value="Email Notification" style="whiteSpace=wrap;html=1;aspect=fixed;fillColor=#008a00;strokeColor=#005700;fontColor=#ffffff;" vertex="1" parent="1">
          <mxGeometry x="110" y="710" width="80" height="80" as="geometry" />
        </mxCell>
        <mxCell id="SGqpdtDcgsjXCCNpPrpQ-49" value="SMS Notification" style="whiteSpace=wrap;html=1;aspect=fixed;fillColor=#cdeb8b;strokeColor=#36393d;" vertex="1" parent="1">
          <mxGeometry x="670" y="700" width="80" height="80" as="geometry" />
        </mxCell>
        <mxCell id="SGqpdtDcgsjXCCNpPrpQ-50" value="" style="endArrow=classic;html=1;rounded=0;exitX=0;exitY=1;exitDx=0;exitDy=0;" edge="1" parent="1" source="SGqpdtDcgsjXCCNpPrpQ-12">
          <mxGeometry width="50" height="50" relative="1" as="geometry">
            <mxPoint x="490" y="480" as="sourcePoint" />
            <mxPoint x="360" y="610" as="targetPoint" />
          </mxGeometry>
        </mxCell>
        <mxCell id="SGqpdtDcgsjXCCNpPrpQ-54" value="" style="endArrow=classic;html=1;rounded=0;exitX=1;exitY=1;exitDx=0;exitDy=0;" edge="1" parent="1" source="SGqpdtDcgsjXCCNpPrpQ-12">
          <mxGeometry width="50" height="50" relative="1" as="geometry">
            <mxPoint x="690" y="545" as="sourcePoint" />
            <mxPoint x="740" y="610" as="targetPoint" />
          </mxGeometry>
        </mxCell>
        <mxCell id="SGqpdtDcgsjXCCNpPrpQ-56" value="Broker (RabbitMq | Kafka)" style="rounded=0;whiteSpace=wrap;html=1;fillColor=#bac8d3;strokeColor=#23445d;" vertex="1" parent="1">
          <mxGeometry x="-130" y="610" width="930" height="60" as="geometry" />
        </mxCell>
        <mxCell id="SGqpdtDcgsjXCCNpPrpQ-60" style="edgeStyle=orthogonalEdgeStyle;rounded=0;orthogonalLoop=1;jettySize=auto;html=1;entryX=0.083;entryY=-0.033;entryDx=0;entryDy=0;entryPerimeter=0;" edge="1" parent="1" source="SGqpdtDcgsjXCCNpPrpQ-59" target="SGqpdtDcgsjXCCNpPrpQ-56">
          <mxGeometry relative="1" as="geometry" />
        </mxCell>
        <mxCell id="SGqpdtDcgsjXCCNpPrpQ-59" value="Stat" style="whiteSpace=wrap;html=1;aspect=fixed;fillColor=#b0e3e6;strokeColor=#0e8088;" vertex="1" parent="1">
          <mxGeometry x="50" y="460" width="80" height="80" as="geometry" />
        </mxCell>
        <mxCell id="SGqpdtDcgsjXCCNpPrpQ-61" value="Redis | Ehcache |&lt;br&gt;Halzecast" style="whiteSpace=wrap;html=1;aspect=fixed;fillColor=#d0cee2;strokeColor=#56517e;" vertex="1" parent="1">
          <mxGeometry x="-120" y="410" width="80" height="80" as="geometry" />
        </mxCell>
        <mxCell id="SGqpdtDcgsjXCCNpPrpQ-65" value="localhost:8080/customer-service/customer" style="text;html=1;strokeColor=none;fillColor=none;align=center;verticalAlign=middle;whiteSpace=wrap;rounded=0;" vertex="1" parent="1">
          <mxGeometry x="380" y="910" width="270" height="30" as="geometry" />
        </mxCell>
        <mxCell id="SGqpdtDcgsjXCCNpPrpQ-66" value="&lt;br&gt;" style="text;html=1;strokeColor=none;fillColor=none;align=center;verticalAlign=middle;whiteSpace=wrap;rounded=0;" vertex="1" parent="1">
          <mxGeometry x="380" y="980" width="280" height="30" as="geometry" />
        </mxCell>
      </root>
    </mxGraphModel>
  </diagram>
</mxfile>
